<svg width="226" height="44" viewBox="0 0 226 44" fill="none" xmlns="http://www.w3.org/2000/svg">
<mask id="path-1-inside-1_6300_22136" fill="white">
<path fill-rule="evenodd" clip-rule="evenodd" d="M4 0C1.79086 0 0 1.79086 0 4V6.34315C0 7.40401 0.421428 8.42143 1.17157 9.17157L3.22843 11.2284C3.97857 11.9786 4.4 12.996 4.4 14.0569V30.3431C4.4 31.404 3.97857 32.4214 3.22843 33.1716L1.17157 35.2284C0.421428 35.9786 0 36.996 0 38.0569V40C0 42.2091 1.79086 44 4 44H222C224.209 44 226 42.2091 226 40V4C226 1.79086 224.209 0 222 0H4Z"/>
</mask>
<path fill-rule="evenodd" clip-rule="evenodd" d="M4 0C1.79086 0 0 1.79086 0 4V6.34315C0 7.40401 0.421428 8.42143 1.17157 9.17157L3.22843 11.2284C3.97857 11.9786 4.4 12.996 4.4 14.0569V30.3431C4.4 31.404 3.97857 32.4214 3.22843 33.1716L1.17157 35.2284C0.421428 35.9786 0 36.996 0 38.0569V40C0 42.2091 1.79086 44 4 44H222C224.209 44 226 42.2091 226 40V4C226 1.79086 224.209 0 222 0H4Z" fill="url(#paint0_linear_6300_22136)"/>
<path d="M3.22843 11.2284L2.52132 11.9355L3.22843 11.2284ZM1 4C1 2.34314 2.34315 1 4 1V-1C1.23858 -1 -1 1.23857 -1 4H1ZM1 6.34315V4H-1V6.34315H1ZM0.464466 9.87868L2.52132 11.9355L3.93553 10.5213L1.87868 8.46447L0.464466 9.87868ZM3.4 14.0569V30.3431H5.4V14.0569H3.4ZM2.52132 32.4645L0.464467 34.5213L1.87868 35.9355L3.93553 33.8787L2.52132 32.4645ZM1 40V38.0569H-1V40H1ZM4 43C2.34315 43 1 41.6569 1 40H-1C-1 42.7614 1.23858 45 4 45V43ZM222 43H4V45H222V43ZM225 40C225 41.6569 223.657 43 222 43V45C224.761 45 227 42.7614 227 40H225ZM225 4V40H227V4H225ZM222 1C223.657 1 225 2.34315 225 4H227C227 1.23858 224.761 -1 222 -1V1ZM4 1H222V-1H4V1ZM0.464467 34.5213C-0.473215 35.459 -1 36.7308 -1 38.0569H1C1 37.2612 1.31607 36.4981 1.87868 35.9355L0.464467 34.5213ZM3.4 30.3431C3.4 31.1388 3.08393 31.9019 2.52132 32.4645L3.93553 33.8787C4.87322 32.941 5.4 31.6692 5.4 30.3431H3.4ZM2.52132 11.9355C3.08393 12.4981 3.4 13.2612 3.4 14.0569H5.4C5.4 12.7308 4.87321 11.459 3.93553 10.5213L2.52132 11.9355ZM-1 6.34315C-1 7.66923 -0.473216 8.941 0.464466 9.87868L1.87868 8.46447C1.31607 7.90186 1 7.13879 1 6.34315H-1Z" fill="url(#paint1_linear_6300_22136)" mask="url(#path-1-inside-1_6300_22136)"/>
<path d="M0 11L2 13V31L0 33V11Z" fill="#65DEEB"/>
<defs>
<linearGradient id="paint0_linear_6300_22136" x1="0" y1="28" x2="226" y2="28" gradientUnits="userSpaceOnUse">
<stop stop-color="#65DEEB" stop-opacity="0.25"/>
<stop offset="1" stop-color="#65DEEB" stop-opacity="0"/>
</linearGradient>
<linearGradient id="paint1_linear_6300_22136" x1="0" y1="28" x2="226" y2="28" gradientUnits="userSpaceOnUse">
<stop stop-color="#65DEEB"/>
<stop offset="1" stop-color="#65DEEB" stop-opacity="0"/>
</linearGradient>
</defs>
</svg>
