<svg width="226" height="44" viewBox="0 0 226 44" fill="none" xmlns="http://www.w3.org/2000/svg">
<mask id="path-1-inside-1_6300_22130" fill="white">
<path fill-rule="evenodd" clip-rule="evenodd" d="M222 0C224.209 0 226 1.79086 226 4V8L221.6 12.4V32L226 36.4V40C226 42.2091 224.209 44 222 44H4C1.79086 44 0 42.2091 0 40V4C0 1.79086 1.79086 0 4 0H222Z"/>
</mask>
<path fill-rule="evenodd" clip-rule="evenodd" d="M222 0C224.209 0 226 1.79086 226 4V8L221.6 12.4V32L226 36.4V40C226 42.2091 224.209 44 222 44H4C1.79086 44 0 42.2091 0 40V4C0 1.79086 1.79086 0 4 0H222Z" fill="url(#paint0_linear_6300_22130)"/>
<path d="M226 8H227V8.41421L226.707 8.70711L226 8ZM221.6 12.4H220.6V11.9858L220.893 11.6929L221.6 12.4ZM221.6 32L220.893 32.7071L220.6 32.4142V32H221.6ZM226 36.4L226.707 35.6929L227 35.9858V36.4H226ZM225 4C225 2.34314 223.657 1 222 1V-1C224.761 -1 227 1.23857 227 4H225ZM225 8V4H227V8H225ZM226.707 8.70711L222.307 13.1071L220.893 11.6929L225.293 7.29289L226.707 8.70711ZM222.6 12.4V32H220.6V12.4H222.6ZM222.307 31.2929L226.707 35.6929L225.293 37.1071L220.893 32.7071L222.307 31.2929ZM225 40V36.4H227V40H225ZM222 43C223.657 43 225 41.6569 225 40H227C227 42.7614 224.761 45 222 45V43ZM4 43H222V45H4V43ZM1 40C1 41.6569 2.34314 43 4 43V45C1.23859 45 -1 42.7614 -1 40H1ZM1 4V40H-1V4H1ZM4 1C2.34315 1 1 2.34315 1 4H-1C-1 1.23858 1.23857 -1 4 -1V1ZM222 1H4V-1H222V1Z" fill="url(#paint1_linear_6300_22130)" mask="url(#path-1-inside-1_6300_22130)"/>
<path d="M226 11L224 13V31L226 33V11Z" fill="#427789"/>
<defs>
<linearGradient id="paint0_linear_6300_22130" x1="226" y1="28" x2="0" y2="28" gradientUnits="userSpaceOnUse">
<stop stop-color="#6E7DBC" stop-opacity="0.1"/>
<stop offset="1" stop-color="#6E7DBC" stop-opacity="0"/>
</linearGradient>
<linearGradient id="paint1_linear_6300_22130" x1="226" y1="28" x2="0" y2="28" gradientUnits="userSpaceOnUse">
<stop stop-color="#65DEEB" stop-opacity="0.4"/>
<stop offset="1" stop-color="#65DEEB" stop-opacity="0"/>
</linearGradient>
</defs>
</svg>
