<svg width="226" height="44" viewBox="0 0 226 44" fill="none" xmlns="http://www.w3.org/2000/svg">
<mask id="path-1-inside-1_6300_22141" fill="white">
<path fill-rule="evenodd" clip-rule="evenodd" d="M222 0C224.209 0 226 1.79086 226 4V6.34315C226 7.40401 225.579 8.42143 224.828 9.17157L222.772 11.2284C222.021 11.9786 221.6 12.996 221.6 14.0569V30.3431C221.6 31.404 222.021 32.4214 222.772 33.1716L224.828 35.2284C225.579 35.9786 226 36.996 226 38.0569V40C226 42.2091 224.209 44 222 44H4C1.79086 44 0 42.2091 0 40V4C0 1.79086 1.79086 0 4 0H222Z"/>
</mask>
<path fill-rule="evenodd" clip-rule="evenodd" d="M222 0C224.209 0 226 1.79086 226 4V6.34315C226 7.40401 225.579 8.42143 224.828 9.17157L222.772 11.2284C222.021 11.9786 221.6 12.996 221.6 14.0569V30.3431C221.6 31.404 222.021 32.4214 222.772 33.1716L224.828 35.2284C225.579 35.9786 226 36.996 226 38.0569V40C226 42.2091 224.209 44 222 44H4C1.79086 44 0 42.2091 0 40V4C0 1.79086 1.79086 0 4 0H222Z" fill="url(#paint0_linear_6300_22141)"/>
<path d="M222.772 11.2284L223.479 11.9355L222.772 11.2284ZM225 4C225 2.34314 223.657 1 222 1V-1C224.761 -1 227 1.23857 227 4H225ZM225 6.34315V4H227V6.34315H225ZM225.536 9.87868L223.479 11.9355L222.064 10.5213L224.121 8.46447L225.536 9.87868ZM222.6 14.0569V30.3431H220.6V14.0569H222.6ZM223.479 32.4645L225.536 34.5213L224.121 35.9355L222.064 33.8787L223.479 32.4645ZM225 40V38.0569H227V40H225ZM222 43C223.657 43 225 41.6569 225 40H227C227 42.7614 224.761 45 222 45V43ZM4 43H222V45H4V43ZM1 40C1 41.6569 2.34314 43 4 43V45C1.23859 45 -1 42.7614 -1 40H1ZM1 4V40H-1V4H1ZM4 1C2.34315 1 1 2.34315 1 4H-1C-1 1.23858 1.23857 -1 4 -1V1ZM222 1H4V-1H222V1ZM225.536 34.5213C226.473 35.459 227 36.7308 227 38.0569H225C225 37.2612 224.684 36.4981 224.121 35.9355L225.536 34.5213ZM222.6 30.3431C222.6 31.1388 222.916 31.9019 223.479 32.4645L222.064 33.8787C221.127 32.941 220.6 31.6692 220.6 30.3431H222.6ZM223.479 11.9355C222.916 12.4981 222.6 13.2612 222.6 14.0569H220.6C220.6 12.7308 221.127 11.459 222.064 10.5213L223.479 11.9355ZM227 6.34315C227 7.66923 226.473 8.941 225.536 9.87868L224.121 8.46447C224.684 7.90186 225 7.13879 225 6.34315H227Z" fill="url(#paint1_linear_6300_22141)" mask="url(#path-1-inside-1_6300_22141)"/>
<path d="M226 11L224 13V31L226 33V11Z" fill="#65DEEB"/>
<defs>
<linearGradient id="paint0_linear_6300_22141" x1="226" y1="28" x2="0" y2="28" gradientUnits="userSpaceOnUse">
<stop stop-color="#65DEEB" stop-opacity="0.25"/>
<stop offset="1" stop-color="#65DEEB" stop-opacity="0"/>
</linearGradient>
<linearGradient id="paint1_linear_6300_22141" x1="226" y1="28" x2="0" y2="28" gradientUnits="userSpaceOnUse">
<stop stop-color="#65DEEB"/>
<stop offset="1" stop-color="#65DEEB" stop-opacity="0"/>
</linearGradient>
</defs>
</svg>
